<svg xmlns="http://www.w3.org/2000/svg" width="64" height="64" viewBox="0 0 64 64" fill="#ffffff">
  <path d="M32 19C32.5523 19 33 18.5523 33 18C33 17.4477 32.5523 17 32 17C31.4477 17 31 17.4477 31 18C31 18.5523 31.4477 19 32 19Z" fill="black"/>
  <path d="M9.04969 37.6001L17.4497 62.3201C17.5168 62.5187 17.6446 62.6912 17.8151 62.8132C17.9855 62.9353 18.19 63.0006 18.3997 63.0001H45.5997C45.8093 63.0006 46.0138 62.9353 46.1843 62.8132C46.3548 62.6912 46.4826 62.5187 46.5497 62.3201L54.9997 37.6001C55.0684 37.3945 55.0686 37.1722 55 36.9666C54.9315 36.761 54.798 36.5833 54.6197 36.4601L40.6197 26.7701C40.7362 26.678 40.8308 26.5611 40.8965 26.4279C40.9623 26.2948 40.9975 26.1486 40.9997 26.0001V22.0001C40.998 21.8622 40.9678 21.7262 40.911 21.6006C40.8542 21.475 40.772 21.3624 40.6697 21.2701C42.295 19.5716 43.3857 17.4331 43.8062 15.1201C44.2267 12.8071 43.9585 10.4216 43.035 8.25969C42.1115 6.09779 40.5734 4.25476 38.6115 2.95946C36.6497 1.66416 34.3506 0.973633 31.9997 0.973633C29.6488 0.973633 27.3497 1.66416 25.3879 2.95946C23.426 4.25476 21.8878 6.09779 20.9644 8.25969C20.0409 10.4216 19.7727 12.8071 20.1932 15.1201C20.6137 17.4331 21.7044 19.5716 23.3297 21.2701C23.2273 21.3624 23.1452 21.475 23.0884 21.6006C23.0316 21.7262 23.0014 21.8622 22.9997 22.0001V26.0001C23.0019 26.1486 23.0371 26.2948 23.1028 26.4279C23.1686 26.5611 23.2631 26.678 23.3797 26.7701L9.42969 36.4601C9.25137 36.5833 9.1179 36.761 9.04936 36.9666C8.98083 37.1722 8.98094 37.3945 9.04969 37.6001V37.6001ZM21.9997 13.0001C21.9997 11.2955 22.4354 9.61924 23.2655 8.13044C24.0955 6.64163 25.2924 5.38972 26.7424 4.49358C28.1924 3.59743 29.8474 3.08681 31.5502 3.01019C33.2531 2.93357 34.9472 3.29351 36.4718 4.05581C37.9964 4.81812 39.3009 5.95749 40.2613 7.36573C41.2217 8.77398 41.8062 10.4043 41.9593 12.102C42.1124 13.7997 41.8289 15.5083 41.1359 17.0657C40.4429 18.623 39.3633 19.9773 37.9997 21.0001V14.0001C37.9997 13.7349 37.8943 13.4805 37.7068 13.293C37.5193 13.1054 37.2649 13.0001 36.9997 13.0001H26.9997C26.7345 13.0001 26.4801 13.1054 26.2926 13.293C26.105 13.4805 25.9997 13.7349 25.9997 14.0001V21.0001C24.7577 20.0686 23.7497 18.8608 23.0554 17.4722C22.3611 16.0837 21.9997 14.5525 21.9997 13.0001ZM38.9997 23.0001V25.0001H24.9997V23.0001H38.9997ZM27.9997 21.0001V15.0001H35.9997V21.0001H27.9997ZM26.5497 27.0001H37.4497L52.8097 37.6701L44.8797 61.0001H19.1197L11.1897 37.6701L26.5497 27.0001Z" fill="#ffffff"/>
  <path d="M48 42C48 38.06 40 36 32 36C24 36 16 38.06 16 42C16 45.94 24.05 48 32 48C39.95 48 48 45.94 48 42ZM18 42C18 40.37 23.45 38 32 38C40.55 38 46 40.37 46 42C46 43.63 40.55 46 32 46C23.45 46 18 43.63 18 42Z" fill="#ffffff"/>
</svg>
